<svg xmlns="http://www.w3.org/2000/svg" viewBox="-1 0 18 21" shape-rendering="crispEdges">
  <g fill="#1a1714">
    <rect x="6" y="0" width="4" height="2"/>
    <rect x="4" y="2" width="8" height="1"/>
    <rect x="3" y="3" width="10" height="1"/>
    <rect x="2" y="4" width="12" height="1"/>
    <rect x="2" y="5" width="2" height="1"/>
    <rect x="6" y="5" width="4" height="1"/>
    <rect x="12" y="5" width="2" height="1"/>
    <rect x="2" y="6" width="12" height="1"/>
    <rect x="3" y="7" width="10" height="1"/>
    <rect x="4" y="8" width="8" height="1"/>
    <rect x="3" y="9" width="10" height="1"/>
    <rect x="2" y="10" width="12" height="1"/>
    <rect x="1" y="11" width="14" height="2"/>
    <rect x="1" y="13" width="4" height="3"/>
    <rect x="11" y="13" width="4" height="3"/>
    <rect x="1" y="16" width="14" height="1"/>
    <rect x="2" y="17" width="12" height="1"/>
    <rect x="3" y="18" width="2" height="2"/>
    <rect x="11" y="18" width="2" height="2"/>
    <rect x="2" y="20" width="4" height="1"/>
    <rect x="10" y="20" width="4" height="1"/>
  </g>
  <rect x="5" y="13" width="6" height="3" fill="#7a2d1a"/>
  <rect x="4" y="5" width="2" height="1" fill="#fefcf5"/>
  <rect x="10" y="5" width="2" height="1" fill="#fefcf5"/>
</svg>
